<?xml version="1.0" encoding="UTF-8" standalone="no"?><!-- Generator: Gravit.io --><svg xmlns="http://www.w3.org/2000/svg" xmlns:xlink="http://www.w3.org/1999/xlink" style="isolation:isolate" viewBox="0 0 1605.549 274.25" width="1605.549pt" height="274.25pt"><defs><clipPath id="_clipPath_QiBXiL8mxLZmESpc57TeGil9tOiq0xP0"><rect width="1605.549" height="274.25"/></clipPath></defs><g clip-path="url(#_clipPath_QiBXiL8mxLZmESpc57TeGil9tOiq0xP0)"><linearGradient id="_lgradient_0" x1="0.004410603584151962" y1="1.5792627836481956" x2="1.0490831187285747" y2="-0.05612216964280203" gradientTransform="matrix(1605.549,0,0,271.459,0,0)" gradientUnits="userSpaceOnUse"><stop offset="0%" stop-opacity="1" style="stop-color:rgb(59,181,145)"/><stop offset="97.91666666666666%" stop-opacity="1" style="stop-color:rgb(21,62,49)"/></linearGradient><path d=" M 1281.578 179.519 L 1281.578 167.481 L 1281.578 167.481 Q 1281.578 124.564 1301.815 100.14 L 1301.815 100.14 L 1301.815 100.14 Q 1322.052 75.715 1357.817 75.715 L 1357.817 75.715 L 1357.817 75.715 Q 1393.93 75.715 1414.167 100.14 L 1414.167 100.14 L 1414.167 100.14 Q 1434.404 124.564 1434.404 167.83 L 1434.404 167.83 L 1434.404 179.868 L 1434.404 179.868 Q 1434.404 222.959 1414.341 247.209 L 1414.341 247.209 L 1414.341 247.209 Q 1394.279 271.459 1358.166 271.459 L 1358.166 271.459 L 1358.166 271.459 Q 1321.878 271.459 1301.728 247.122 L 1301.728 247.122 L 1301.728 247.122 Q 1281.578 222.785 1281.578 179.519 L 1281.578 179.519 Z  M 1331.124 167.481 L 1331.124 179.868 L 1331.124 179.868 Q 1331.124 230.461 1358.166 230.461 L 1358.166 230.461 L 1358.166 230.461 Q 1383.113 230.461 1385.032 188.242 L 1385.032 188.242 L 1385.207 167.481 L 1385.207 167.481 Q 1385.207 141.661 1378.054 129.187 L 1378.054 129.187 L 1378.054 129.187 Q 1370.901 116.713 1357.817 116.713 L 1357.817 116.713 L 1357.817 116.713 Q 1345.256 116.713 1338.19 129.187 L 1338.19 129.187 L 1338.19 129.187 Q 1331.124 141.661 1331.124 167.481 L 1331.124 167.481 Z  M 1463.888 79.205 L 1510.294 79.205 L 1511.69 97.872 L 1511.69 97.872 Q 1528.438 75.715 1555.479 75.715 L 1555.479 75.715 L 1555.479 75.715 Q 1604.153 75.715 1605.549 143.929 L 1605.549 143.929 L 1605.549 267.969 L 1556.002 267.969 L 1556.002 147.593 L 1556.002 147.593 Q 1556.002 131.542 1551.205 124.302 L 1551.205 124.302 L 1551.205 124.302 Q 1546.407 117.062 1534.369 117.062 L 1534.369 117.062 L 1534.369 117.062 Q 1520.936 117.062 1513.434 130.844 L 1513.434 130.844 L 1513.434 267.969 L 1463.888 267.969 L 1463.888 79.205 Z  M 74.145 230.461 L 74.145 230.461 L 74.145 230.461 Q 95.604 230.461 95.953 202.547 L 95.953 202.547 L 142.359 202.547 L 142.359 202.547 Q 142.01 233.427 123.343 252.443 L 123.343 252.443 L 123.343 252.443 Q 104.676 271.459 75.192 271.459 L 75.192 271.459 L 75.192 271.459 Q 38.73 271.459 19.539 248.779 L 19.539 248.779 L 19.539 248.779 Q 0.349 226.099 0 181.961 L 0 181.961 L 0 166.958 L 0 166.958 Q 0 122.47 18.929 99.093 L 18.929 99.093 L 18.929 99.093 Q 37.858 75.715 74.843 75.715 L 74.843 75.715 L 74.843 75.715 Q 106.071 75.715 124.041 94.993 L 124.041 94.993 L 124.041 94.993 Q 142.01 114.271 142.359 149.686 L 142.359 149.686 L 95.953 149.686 L 95.953 149.686 Q 95.778 133.81 90.719 125.262 L 90.719 125.262 L 90.719 125.262 Q 85.66 116.713 73.971 116.713 L 73.971 116.713 L 73.971 116.713 Q 61.061 116.713 55.478 125.872 L 55.478 125.872 L 55.478 125.872 Q 49.895 135.031 49.546 161.375 L 49.546 161.375 L 49.546 180.565 L 49.546 180.565 Q 49.546 203.594 51.814 212.753 L 51.814 212.753 L 51.814 212.753 Q 54.082 221.912 59.316 226.186 L 59.316 226.186 L 59.316 226.186 Q 64.55 230.461 74.145 230.461 Z  M 218.423 0 L 218.423 95.778 L 218.423 95.778 Q 234.473 75.715 257.851 75.715 L 257.851 75.715 L 257.851 75.715 Q 283.671 75.715 297.104 93.859 L 297.104 93.859 L 297.104 93.859 Q 310.538 112.003 310.712 147.941 L 310.712 147.941 L 310.712 267.969 L 261.166 267.969 L 261.166 148.465 L 261.166 148.465 Q 261.166 131.891 256.019 124.477 L 256.019 124.477 L 256.019 124.477 Q 250.872 117.062 239.358 117.062 L 239.358 117.062 L 239.358 117.062 Q 225.925 117.062 218.423 129.449 L 218.423 129.449 L 218.423 267.969 L 169.051 267.969 L 169.051 0 L 218.423 0 Z  M 485.52 267.969 L 435.799 267.969 L 435.799 267.969 Q 433.706 263.608 431.612 253.315 L 431.612 253.315 L 431.612 253.315 Q 418.353 271.459 395.674 271.459 L 395.674 271.459 L 395.674 271.459 Q 371.947 271.459 356.333 255.757 L 356.333 255.757 L 356.333 255.757 Q 340.719 240.056 340.719 215.108 L 340.719 215.108 L 340.719 215.108 Q 340.719 185.45 359.648 169.226 L 359.648 169.226 L 359.648 169.226 Q 378.577 153.001 414.166 152.652 L 414.166 152.652 L 429.17 152.652 L 429.17 137.474 L 429.17 137.474 Q 429.17 124.738 424.808 119.505 L 424.808 119.505 L 424.808 119.505 Q 420.447 114.271 412.073 114.271 L 412.073 114.271 L 412.073 114.271 Q 393.58 114.271 393.58 135.904 L 393.58 135.904 L 344.208 135.904 L 344.208 135.904 Q 344.208 109.735 363.835 92.725 L 363.835 92.725 L 363.835 92.725 Q 383.462 75.715 413.469 75.715 L 413.469 75.715 L 413.469 75.715 Q 444.522 75.715 461.532 91.853 L 461.532 91.853 L 461.532 91.853 Q 478.542 107.99 478.542 137.997 L 478.542 137.997 L 478.542 226.797 L 478.542 226.797 Q 478.891 251.221 485.52 265.004 L 485.52 265.004 L 485.52 267.969 Z  M 406.665 232.729 L 406.665 232.729 L 406.665 232.729 Q 414.864 232.729 420.621 229.414 L 420.621 229.414 L 420.621 229.414 Q 426.378 226.099 429.17 221.563 L 429.17 221.563 L 429.17 182.31 L 417.307 182.31 L 417.307 182.31 Q 404.746 182.31 397.505 190.335 L 397.505 190.335 L 397.505 190.335 Q 390.265 198.36 390.265 211.794 L 390.265 211.794 L 390.265 211.794 Q 390.265 232.729 406.665 232.729 Z  M 514.48 79.205 L 560.712 79.205 L 562.108 96.65 L 562.108 96.65 Q 578.681 75.715 605.897 75.715 L 605.897 75.715 L 605.897 75.715 Q 634.16 75.715 645.848 101.186 L 645.848 101.186 L 645.848 101.186 Q 662.073 75.715 692.08 75.715 L 692.08 75.715 L 692.08 75.715 Q 741.626 75.715 742.848 144.278 L 742.848 144.278 L 742.848 267.969 L 693.476 267.969 L 693.476 147.418 L 693.476 147.418 Q 693.476 131.019 688.94 124.041 L 688.94 124.041 L 688.94 124.041 Q 684.404 117.062 673.587 117.062 L 673.587 117.062 L 673.587 117.062 Q 659.805 117.062 653.001 133.985 L 653.001 133.985 L 653.35 139.916 L 653.35 267.969 L 603.978 267.969 L 603.978 147.767 L 603.978 147.767 Q 603.978 131.542 599.617 124.302 L 599.617 124.302 L 599.617 124.302 Q 595.255 117.062 584.09 117.062 L 584.09 117.062 L 584.09 117.062 Q 571.354 117.062 563.852 130.844 L 563.852 130.844 L 563.852 267.969 L 514.48 267.969 L 514.48 79.205 Z  M 855.548 271.459 L 855.548 271.459 L 855.548 271.459 Q 817.516 271.459 796.232 248.779 L 796.232 248.779 L 796.232 248.779 Q 774.948 226.099 774.948 183.88 L 774.948 183.88 L 774.948 168.877 L 774.948 168.877 Q 774.948 124.215 794.488 99.965 L 794.488 99.965 L 794.488 99.965 Q 814.027 75.715 850.489 75.715 L 850.489 75.715 L 850.489 75.715 Q 886.079 75.715 904.048 98.482 L 904.048 98.482 L 904.048 98.482 Q 922.017 121.249 922.366 165.911 L 922.366 165.911 L 922.366 190.161 L 824.146 190.161 L 824.146 190.161 Q 825.192 211.096 833.392 220.778 L 833.392 220.778 L 833.392 220.778 Q 841.592 230.461 858.689 230.461 L 858.689 230.461 L 858.689 230.461 Q 883.462 230.461 900.035 213.538 L 900.035 213.538 L 919.4 243.371 L 919.4 243.371 Q 910.329 255.932 893.057 263.695 L 893.057 263.695 L 893.057 263.695 Q 875.786 271.459 855.548 271.459 Z  M 824.495 155.618 L 824.495 155.618 L 873.867 155.618 L 873.867 151.082 L 873.867 151.082 Q 873.518 134.159 868.284 125.436 L 868.284 125.436 L 868.284 125.436 Q 863.05 116.713 850.14 116.713 L 850.14 116.713 L 850.14 116.713 Q 837.23 116.713 831.386 125.96 L 831.386 125.96 L 831.386 125.96 Q 825.541 135.206 824.495 155.618 Z  M 1002.094 0 L 1002.094 267.969 L 952.548 267.969 L 952.548 0 L 1002.094 0 Z " fill="url(#_lgradient_0)"/><g><linearGradient id="_lgradient_1" x1="0.07529167574369028" y1="1.018142706187263" x2="0.8615937745216262" y2="-0.005703880706931397" gradientTransform="matrix(224.328,0,0,206.853,1039.281,67.397)" gradientUnits="userSpaceOnUse"><stop offset="1.6666666666666667%" stop-opacity="1" style="stop-color:rgb(65,198,158)"/><stop offset="100%" stop-opacity="1" style="stop-color:rgb(12,36,29)"/></linearGradient><path d=" M 1161.37 222.844 C 1143.603 222.844 1126.109 212.536 1118.14 196.548 C 1112.919 186.072 1111.706 166.211 1128.334 166.211 L 1128.334 166.211 L 1128.334 166.211 L 1161.37 166.211 L 1199.126 166.211 L 1239.094 166.211 C 1241.699 166.211 1243.211 164.184 1242.468 161.687 Q 1237.964 146.537 1233.962 139.316 C 1222.222 118.133 1202.576 100.66 1179.741 92.308 C 1173.259 89.936 1163.056 85.869 1155.83 86.627 C 1153.504 86.872 1151.932 88.81 1151.932 91.121 L 1151.932 91.121 L 1151.932 112.226 C 1151.932 126.114 1129.791 124.244 1118.98 124.244 C 1113.86 124.581 1108.848 125.533 1103.935 127.001 C 1070.152 137.095 1049.845 175.768 1060.375 209.33 C 1068.049 233.79 1089.718 252.397 1115.255 255.658 C 1126.656 257.113 1138.567 255.563 1149.193 251.159 C 1158.885 247.143 1167.536 241.11 1174.469 233.221 C 1175.845 231.654 1183.645 222.855 1176.915 222.844 L 1161.37 222.844 Z  M 1138.531 185.089 L 1161.37 185.089 L 1199.126 185.089 L 1250.108 185.089 C 1251.884 185.094 1257.815 184.13 1260.774 181.171 C 1262.048 179.909 1263.609 178.821 1263.609 169.765 C 1262.712 162.795 1261.134 155.931 1258.895 149.271 C 1256.674 142.658 1253.854 136.26 1250.471 130.16 C 1247.091 124.063 1243.191 118.27 1238.817 112.843 C 1234.439 107.406 1229.614 102.345 1224.39 97.711 C 1219.157 93.065 1213.544 88.868 1207.609 85.163 C 1201.654 81.441 1195.383 78.249 1188.873 75.618 C 1182.316 72.969 1175.529 70.931 1168.594 69.536 C 1161.556 68.12 1154.395 67.403 1147.218 67.397 C 1143.463 67.397 1139.859 68.887 1137.201 71.541 C 1134.546 74.196 1133.054 77.801 1133.054 81.556 L 1133.054 100.888 C 1132.998 106.867 1125.421 105.098 1118.98 105.623 C 1104.664 104.88 1093.752 109.284 1081.378 116.388 C 1039.094 140.663 1026.041 199.44 1054.308 239.228 C 1084.724 282.04 1149.408 286.05 1185.814 248.782 C 1193.673 240.737 1201.353 230.581 1203.415 219.256 C 1204.865 211.293 1198.844 203.92 1190.705 203.966 L 1190.705 203.966 L 1190.705 203.966 L 1161.376 203.966 C 1153.747 203.955 1145.4 200.842 1140.177 195.129 C 1138.39 193.175 1131.862 185.089 1138.531 185.089 L 1138.531 185.089 L 1138.531 185.089 Z " fill-rule="evenodd" fill="url(#_lgradient_1)"/><circle vector-effect="non-scaling-stroke" cx="1197.0613539048638" cy="133.46955011511182" r="18.87782137566296" fill="rgb(30,91,73)"/></g></g></svg>